<svg id="Iconly_Bulk_Close_Square" data-name="Iconly/Bulk/Close Square" xmlns="http://www.w3.org/2000/svg" width="36" height="36" viewBox="0 0 36 36">
  <path id="Fill_1" data-name="Fill 1" d="M25.812,0H10.206C4.1,0,0,4.284,0,10.656V25.362C0,31.716,4.1,36,10.206,36H25.812C31.914,36,36,31.716,36,25.362V10.656C36,4.284,31.914,0,25.812,0" fill="#fff"/>
  <path id="Fill_4" data-name="Fill 4" d="M13.813,11.094,9.906,7.19l3.9-3.9A1.922,1.922,0,0,0,11.094.566l-3.907,3.9L3.28.562A1.922,1.922,0,0,0,.562,3.28L4.471,7.19l-3.9,3.9a1.922,1.922,0,0,0,2.717,2.719l3.9-3.9L11.1,13.813a1.922,1.922,0,0,0,2.717-2.719" transform="translate(11 11)" fill="#2e2842"/>
</svg>
